<svg width="48" height="44" viewBox="0 0 48 44" fill="none" xmlns="http://www.w3.org/2000/svg">
<rect width="48" height="44" rx="22" fill="#EAFFF3"/>
<path fill-rule="evenodd" clip-rule="evenodd" d="M14.5 11C13.9477 11 13.5 11.4477 13.5 12C13.5 12.5523 13.9477 13 14.5 13C15.3085 13 16.0005 13.5798 16.1421 14.3758L16.8684 18.4608L17.2792 20.8415C17.5367 22.3337 17.7424 23.5252 18.0023 24.4717C18.2701 25.4467 18.6179 26.2529 19.2125 26.9368C19.6206 27.4061 20.0991 27.8091 20.631 28.1314C21.4061 28.6011 22.2597 28.8067 23.266 28.9048C24.2429 29 25.452 29 26.9661 29H27.4352C28.1078 29 28.6675 29 29.1298 28.9652C29.6136 28.9287 30.0597 28.8504 30.4938 28.6585C31.1219 28.3809 31.6679 27.9462 32.0794 27.3964C32.3637 27.0163 32.54 26.5991 32.684 26.1359C32.8217 25.6932 32.9472 25.1476 33.098 24.4922L33.117 24.4097C33.3463 23.4132 33.5336 22.5993 33.6243 21.9347C33.7175 21.2515 33.7278 20.6093 33.5154 19.9894C33.2167 19.1174 32.626 18.3753 31.8432 17.8886C31.2867 17.5427 30.6586 17.4087 29.9718 17.3463C29.3038 17.2857 28.4686 17.2857 27.4461 17.2857H18.6908L18.1112 14.0257C17.7999 12.2752 16.278 11 14.5 11ZM19.2413 20.4505L19.0403 19.2857H27.3983C28.4803 19.2857 29.2242 19.2867 29.7909 19.3381C30.3491 19.3888 30.6163 19.4809 30.7872 19.5872C31.1786 19.8305 31.474 20.2016 31.6234 20.6376C31.6886 20.828 31.7184 21.109 31.6426 21.6643C31.5657 22.2282 31.3998 22.9534 31.1572 24.0078C30.996 24.7084 30.8868 25.18 30.7742 25.542C30.6655 25.8916 30.5732 26.071 30.478 26.1982C30.2723 26.4731 29.9992 26.6904 29.6852 26.8293C29.5399 26.8935 29.3443 26.9433 28.9793 26.9708C28.6012 26.9993 28.1171 27 27.3983 27H27.0179C25.4403 27 24.3286 26.9989 23.46 26.9142C22.6096 26.8314 22.087 26.6751 21.6675 26.421C21.3129 26.2061 20.9939 25.9374 20.7218 25.6245C20.4 25.2544 20.1572 24.766 19.9309 23.942C19.6998 23.1004 19.5096 22.0052 19.2413 20.4505Z" fill="#2F945C"/>
<path d="M21.25 32C21.9404 32 22.5 31.4404 22.5 30.75C22.5 30.0596 21.9404 29.5 21.25 29.5C20.5596 29.5 20 30.0596 20 30.75C20 31.4404 20.5596 32 21.25 32Z" fill="#2F945C"/>
<path d="M31.5 30.75C31.5 31.4404 30.9404 32 30.25 32C29.5596 32 29 31.4404 29 30.75C29 30.0596 29.5596 29.5 30.25 29.5C30.9404 29.5 31.5 30.0596 31.5 30.75Z" fill="#2F945C"/>
<path d="M34.3419 13.7071C34.7325 13.3166 34.7325 12.6834 34.3419 12.2929C33.9514 11.9024 33.3183 11.9024 32.9277 12.2929L30.989 14.2316L30.7071 13.9497C30.3166 13.5592 29.6834 13.5592 29.2929 13.9497C28.9024 14.3403 28.9024 14.9734 29.2929 15.364L30.2819 16.3529C30.6724 16.7435 31.3056 16.7435 31.6961 16.3529L34.3419 13.7071Z" fill="#2F945C"/>
</svg>
