<svg width="43" height="44" viewBox="0 0 43 44" fill="none" xmlns="http://www.w3.org/2000/svg">
<rect y="0.131836" width="42.7364" height="43.7364" rx="9.86822" fill="#2F945C"/>
<path d="M17.1956 11.928L20.9208 20.6614L25.0901 11.9033C25.1395 11.8293 25.2135 11.7553 25.3368 11.7553H31.0851C31.1838 11.7553 31.2578 11.8046 31.3071 11.8786C31.3565 11.9526 31.3565 12.0267 31.3318 12.1253L30.641 13.8523V26.9277L31.3318 28.6546C31.3565 28.7286 31.3565 28.8273 31.3071 28.9013C31.2578 28.9753 31.1838 29 31.0851 29H25.4602C25.3862 29 25.3122 28.9753 25.2628 28.9013C25.2135 28.8273 25.1888 28.7286 25.2382 28.6546L25.9289 26.9277V16.6647L20.0327 29.1727C19.9833 29.2714 19.8847 29.3207 19.786 29.3207C19.6873 29.3207 19.6133 29.2467 19.5639 29.1727L14.4325 17.2075V26.2369L15.4193 28.6546C15.444 28.7286 15.444 28.8273 15.3946 28.9013C15.3453 28.9753 15.2713 29 15.1726 29H10.9046C10.8059 29 10.7319 28.9753 10.6825 28.9013C10.6332 28.8273 10.6332 28.7286 10.6579 28.6546L11.6447 26.2369V13.8523L10.9539 12.1253C10.9046 12.0267 10.9292 11.9526 10.9786 11.8786C11.0279 11.8046 11.1019 11.7553 11.1759 11.7553H16.9735C17.0722 11.7553 17.1709 11.8293 17.1956 11.928Z" fill="#FAFAFA"/>
</svg>
