<svg width="48" height="44" viewBox="0 0 48 44" fill="none" xmlns="http://www.w3.org/2000/svg">
<rect width="48" height="44" rx="22" fill="#EAFFF3"/>
<path fill-rule="evenodd" clip-rule="evenodd" d="M22.9997 12.5C21.8951 12.5 20.9997 13.3954 20.9997 14.5V15.5H20.4997C18.2905 15.5 16.4997 17.2909 16.4997 19.5V21.132L15.3279 21.7178C13.9126 22.4255 12.9573 23.969 13.2885 25.657C13.4279 26.3678 13.6355 27.1968 13.9439 27.9893C14.2484 28.7716 14.6759 29.5836 15.2887 30.2032C15.9872 30.9094 16.7539 31.2953 17.5736 31.4385C18.3654 31.5768 19.1442 31.4771 19.8547 31.3254C20.2534 31.2403 20.7137 31.1171 21.1533 30.9994C21.4382 30.9231 21.7145 30.8492 21.9598 30.7894C22.6517 30.6207 23.3206 30.5 23.9997 30.5C24.6787 30.5 25.3476 30.6207 26.0395 30.7894C26.2848 30.8492 26.5611 30.9231 26.846 30.9994C27.2857 31.1171 27.7459 31.2403 28.1446 31.3254C28.8551 31.4771 29.6339 31.5768 30.4257 31.4385C31.2454 31.2953 32.0121 30.9094 32.7106 30.2032C33.3234 29.5836 33.7509 28.7716 34.0554 27.9893C34.3638 27.1968 34.5714 26.3678 34.7108 25.657C35.042 23.969 34.0867 22.4255 32.6714 21.7178L31.4997 21.132V19.5C31.4997 17.2909 29.7088 15.5 27.4997 15.5H26.9997V14.5C26.9997 13.3954 26.1042 12.5 24.9997 12.5H22.9997ZM22.2108 18.2764L18.4997 20.132V19.5C18.4997 18.3954 19.3951 17.5 20.4997 17.5H27.4997C28.6042 17.5 29.4997 18.3954 29.4997 19.5V20.132L25.7885 18.2764C24.6624 17.7133 23.3369 17.7133 22.2108 18.2764ZM23.1052 20.0652C23.6683 19.7837 24.331 19.7837 24.8941 20.0652L31.777 23.5067C32.5146 23.8755 32.8805 24.5979 32.7482 25.272C32.6226 25.9122 32.4429 26.618 32.1915 27.264C31.9361 27.9203 31.6312 28.4505 31.2887 28.7968C30.8696 29.2205 30.4748 29.3996 30.0816 29.4683C29.6605 29.5419 29.175 29.5003 28.5622 29.3695C28.1843 29.2888 27.8412 29.196 27.4645 29.0941C27.1771 29.0163 26.87 28.9332 26.5131 28.8462C25.7562 28.6618 24.91 28.5 23.9997 28.5C23.0893 28.5 22.2431 28.6618 21.4862 28.8462C21.1293 28.9332 20.8223 29.0163 20.5349 29.0941C20.1582 29.196 19.815 29.2889 19.4371 29.3695C18.8243 29.5003 18.3388 29.5419 17.9177 29.4683C17.5245 29.3996 17.1298 29.2205 16.7106 28.7968C16.3681 28.4505 16.0632 27.9203 15.8078 27.264C15.5564 26.618 15.3767 25.9122 15.2511 25.272C15.1188 24.5979 15.4847 23.8755 16.2223 23.5067L23.1052 20.0652ZM24.9997 15.5H22.9997V14.5H24.9997V15.5Z" fill="#2F945C"/>
</svg>
