<svg width="25" height="24" viewBox="0 0 25 24" fill="none" xmlns="http://www.w3.org/2000/svg">
<path fill-rule="evenodd" clip-rule="evenodd" d="M10.7038 2.73137C11.3441 3.05564 11.8653 3.43518 12.2455 3.75429C12.6258 3.43518 13.147 3.05564 13.7873 2.73137C15.2382 1.99652 17.3264 1.54203 19.6748 2.73136C21.175 3.49109 22.1897 4.64064 22.7423 6.03634C23.2875 7.41328 23.3615 8.97211 23.0991 10.5537C22.652 13.2483 20.8103 15.6527 18.9188 17.5053C17.0036 19.3811 14.9037 20.8196 13.7195 21.5696C12.813 22.1438 11.6781 22.1438 10.7717 21.5697C9.58737 20.8196 7.48744 19.3811 5.57226 17.5053C3.6807 15.6527 1.83894 13.2483 1.39184 10.5537C1.12942 8.97212 1.20349 7.41328 1.74866 6.03634C2.30125 4.64064 3.31601 3.49109 4.81612 2.73136C7.16452 1.54203 9.2528 1.99653 10.7038 2.73137ZM11.4837 5.78568C11.6737 6.00915 11.9522 6.13797 12.2456 6.13797C12.5384 6.13796 12.8165 6.00958 13.0065 5.78684C13.0067 5.78658 13.0069 5.78633 13.0071 5.78607C13.0074 5.78577 13.0076 5.78547 13.0079 5.78516L13.0231 5.76813C13.0386 5.75086 13.0648 5.72242 13.101 5.68492C13.1736 5.60977 13.2858 5.49926 13.4335 5.37001C13.7312 5.10957 14.1609 4.78403 14.6909 4.51559C15.7319 3.98837 17.1324 3.68562 18.7712 4.51559C19.8412 5.05748 20.5125 5.83735 20.8828 6.77259C21.2605 7.72659 21.3461 8.9002 21.1261 10.2263C20.7847 12.2841 19.3173 14.3155 17.5193 16.0765C15.745 17.8143 13.775 19.167 12.6493 19.88C12.3962 20.0403 12.0949 20.0403 11.8418 19.88C10.7161 19.167 8.74606 17.8143 6.97169 16.0765C5.1737 14.3155 3.7063 12.2841 3.36487 10.2263C3.14483 8.9002 3.2305 7.72659 3.60821 6.77259C3.97849 5.83735 4.64974 5.05748 5.71974 4.51559C7.35857 3.68562 8.75911 3.98836 9.80015 4.5156C10.3302 4.78403 10.7599 5.10958 11.0576 5.37002C11.2053 5.49927 11.3175 5.60978 11.3901 5.68494C11.4264 5.72244 11.4525 5.75088 11.4681 5.76815L11.4837 5.78568Z" fill="#101928"/>
</svg>
