<svg width="22" height="21" viewBox="0 0 22 21" fill="none" xmlns="http://www.w3.org/2000/svg">
<path fill-rule="evenodd" clip-rule="evenodd" d="M1.74548 0C1.1932 0 0.745483 0.447715 0.745483 1C0.745483 1.55228 1.1932 2 1.74548 2C2.4739 2 3.11028 2.52928 3.24129 3.274L3.92717 7.17269L3.92778 7.17614L4.36724 9.63208C4.64208 11.1681 4.86156 12.3948 5.13904 13.3692C5.42521 14.3741 5.79609 15.2009 6.426 15.8996C6.85864 16.3796 7.36485 16.7904 7.92585 17.1183C8.73855 17.5932 9.63444 17.8024 10.6996 17.9025C11.7373 18 13.0235 18 14.6438 18H15.1363C15.857 18 16.4511 18 16.9405 17.9644C17.4504 17.9273 17.9144 17.8482 18.3647 17.6563C19.0213 17.3764 19.5964 16.9363 20.0319 16.3748C20.3327 15.9871 20.5204 15.5597 20.6744 15.0822C20.8213 14.6266 20.9552 14.065 21.1162 13.3902L21.1365 13.3051C21.3812 12.2795 21.5812 11.4415 21.678 10.7573C21.7776 10.0532 21.7885 9.391 21.5618 8.75271C21.2431 7.85541 20.6158 7.09999 19.795 6.60785C19.2169 6.26118 18.563 6.12553 17.8377 6.062C17.1294 5.99998 16.242 5.99999 15.1469 6H5.75158L5.21104 2.92747C4.91443 1.24144 3.45982 0 1.74548 0ZM15.1002 8C16.2531 8 17.0526 8.0009 17.6632 8.05437C18.2667 8.10723 18.5684 8.20432 18.7666 8.32315C19.1991 8.58247 19.5176 8.97292 19.6771 9.42211C19.7467 9.61793 19.7785 9.90606 19.6977 10.4771C19.6156 11.0572 19.4386 11.8036 19.1796 12.8892C19.0076 13.6103 18.891 14.0958 18.7709 14.4686C18.655 14.8278 18.556 15.0145 18.4517 15.1489C18.2286 15.4365 17.9294 15.6677 17.5804 15.8165C17.4123 15.8881 17.1915 15.9409 16.7954 15.9697C16.3871 15.9994 15.8659 16 15.1002 16H14.6942C13.0123 16 11.82 15.999 10.8868 15.9113C9.97026 15.8251 9.39722 15.6617 8.935 15.3915C8.54982 15.1664 8.20475 14.8858 7.9115 14.5605C7.56331 14.1743 7.30374 13.6683 7.06257 12.8214C6.81587 11.9551 6.61296 10.8278 6.32659 9.22738L6.10697 8H15.1002Z" fill="#101928"/>
<path d="M9.74548 19.75C9.74548 20.4404 9.18584 21 8.49548 21C7.80513 21 7.24548 20.4404 7.24548 19.75C7.24548 19.0596 7.80513 18.5 8.49548 18.5C9.18584 18.5 9.74548 19.0596 9.74548 19.75Z" fill="#101928"/>
<path d="M17.4955 21C18.1858 21 18.7455 20.4404 18.7455 19.75C18.7455 19.0596 18.1858 18.5 17.4955 18.5C16.8051 18.5 16.2455 19.0596 16.2455 19.75C16.2455 20.4404 16.8051 21 17.4955 21Z" fill="#101928"/>
</svg>
