<svg width="16" height="17" viewBox="0 0 16 17" fill="none" xmlns="http://www.w3.org/2000/svg">
<path d="M2.9267 3.20013L3.28373 2.84311C4.06477 2.06206 5.3311 2.06206 6.11215 2.84311L6.7314 3.46236C7.36803 4.09899 7.50081 5.08253 7.05577 5.86518L7.01918 5.92954C6.66263 6.55657 6.66432 7.33249 7.08721 7.91683C7.29791 8.20795 7.53593 8.50953 7.76207 8.73567C7.98821 8.96181 8.28978 9.19983 8.58091 9.41052C9.16525 9.83341 9.94117 9.83511 10.5682 9.47856L10.6326 9.44197C11.4152 8.99693 12.3987 9.1297 13.0354 9.76633L13.6546 10.3856C14.4357 11.1666 14.4357 12.433 13.6546 13.214L13.2976 13.571C12.9225 13.9461 12.4116 14.1551 11.8958 14.0311C10.7936 13.7662 8.66971 12.9431 6.11215 10.3856C3.55459 7.82803 2.73151 5.70409 2.46662 4.6019C2.34267 4.08616 2.55163 3.57521 2.9267 3.20013Z" fill="white"/>
</svg>
